# xmcd
#
# Track frame offsets:
#	150
#	18452
#	39454
#	58207
#	80559
#	102987
#	127739
#	148367
#	167945
#	192172
#	211450
#	229978
#	247755
#	268083
#	287136
#	310313
#
# Disc length: 4432 seconds
# Revision: 7
# Processed by: cddbd v1.5.2PL0 Copyright (c) Steve Scherf et al.
# Submitted via: dBpowerAMP V12.0
#
DISCID=ef114e10
DTITLE=Various Artist - Soul Love Vol. 01
DYEAR=1992
DGENRE=Soul
TTITLE0=Gregory Abbott - Shake You Down
TTITLE1=Regina Belle - This Is Love
TTITLE2=Bill Withers - Ain't No Sunshine
TTITLE3=Luther Vandross - Any Love
TTITLE4=The Pasadenas - Enchanted Lady
TTITLE5=The Chimes - I Still Haven´t Found What I´m Looking For
TTITLE6=Terence Trent D'Arby - Sign Your Name
TTITLE7=P.M. Sampson and Double Key - We Love To Love
TTITLE8=L.L. Cool J. - I Need Love
TTITLE9=Surface - The First Time
TTITLE10=Maurice White - Stand By Me
TTITLE11=Marvin Gaye - Sexual Healing
TTITLE12=Philip Bailey - Because Of You
TTITLE13=Earth, Wind and Fire - After The Love Has Gone
TTITLE14=Oran 'Juice' Jone - The Rain
TTITLE15=Alyson Williams - I Need Your Lovin
EXTD=
EXTT0=
EXTT1=
EXTT2=
EXTT3=
EXTT4=
EXTT5=
EXTT6=
EXTT7=
EXTT8=
EXTT9=
EXTT10=
EXTT11=
EXTT12=
EXTT13=
EXTT14=
EXTT15=
PLAYORDER=
